<svg xmlns="http://www.w3.org/2000/svg" viewBox="0 0 600 180" width="600" height="180">
  <defs>
    <linearGradient id="lgGold" x1="0%" y1="0%" x2="100%" y2="100%">
      <stop offset="0%" stop-color="#D4AF37"/>
      <stop offset="30%" stop-color="#FFF2CD"/>
      <stop offset="50%" stop-color="#F0D060"/>
      <stop offset="70%" stop-color="#FFF2CD"/>
      <stop offset="100%" stop-color="#D4AF37"/>
    </linearGradient>
    <linearGradient id="lgGold2" x1="0%" y1="0%" x2="100%" y2="0%">
      <stop offset="0%" stop-color="#D4AF37"/>
      <stop offset="50%" stop-color="#FFF2CD"/>
      <stop offset="100%" stop-color="#D4AF37"/>
    </linearGradient>
  </defs>
  <!-- Giant Crest -->
  <g transform="translate(40, 15)">
    <path d="M0 50 L50 0 L100 50 L100 110 L50 160 L0 110 Z" fill="none" stroke="url(#lgGold)" stroke-width="3"/>
    <path d="M12 56 L50 18 L88 56 L88 104 L50 142 L12 104 Z" fill="none" stroke="url(#lgGold)" stroke-width="1.2" opacity="0.25"/>
    <text x="50" y="98" font-family="'Playfair Display', Georgia, serif" font-size="60" font-weight="700" fill="url(#lgGold)" text-anchor="middle" letter-spacing="2">FZ</text>
    <!-- Corner diamonds -->
    <polygon points="0,60 -7,67 0,74 7,67" fill="url(#lgGold)"/>
    <polygon points="100,60 93,67 100,74 107,67" fill="url(#lgGold)"/>
    <polygon points="0,100 -7,107 0,114 7,107" fill="url(#lgGold)"/>
    <polygon points="100,100 93,107 100,114 107,107" fill="url(#lgGold)"/>
    <!-- Bottom diamond -->
    <polygon points="50,155 45,162 50,169 55,162" fill="url(#lgGold)"/>
    <polygon points="50,-5 45,2 50,9 55,2" fill="url(#lgGold)"/>
  </g>
  <!-- Company Name - LARGE -->
  <g transform="translate(170, 28)">
    <text x="0" y="55" font-family="'Playfair Display', Georgia, serif" font-size="46" font-weight="700" fill="#FFFFFF" letter-spacing="6">FZ EVENTZ</text>
    <text x="0" y="90" font-family="'Inter', Arial, sans-serif" font-size="11" font-weight="300" fill="url(#lgGold2)" letter-spacing="7">ARCHITECTURAL EVENT PRODUCTION</text>
    <rect x="0" y="105" width="100" height="2.5" rx="1.5" fill="url(#lgGold2)"/>
    <text x="0" y="132" font-family="'Inter', Arial, sans-serif" font-size="10" font-weight="400" fill="rgba(255,255,255,0.35)" letter-spacing="4">BENGALURU · INDIA</text>
  </g>
</svg>
